<svg width="283" height="57" viewBox="0 0 283 57" fill="none" xmlns="http://www.w3.org/2000/svg">
<path d="M163.514 33.2283L147.74 13.3507L147.689 13.2994H141.546V43.7312H147.73V23.8023L163.503 43.6799L163.555 43.7312H169.698V13.2994H163.514V33.2283Z" fill="#A7A7A7"/>
<path d="M19.0523 37.5259H12.8682V43.7107H19.0523V37.5259Z" fill="#A7A7A7"/>
<path d="M26.1903 13.2892H12.8784V31.3718H19.0421V19.474H26.0159C32.4155 19.474 36.5588 23.0536 36.5588 28.5205C36.5588 33.9873 32.4155 37.5669 26.0159 37.5669H25.2262V43.7415H26.1903C36.0665 43.7415 42.8044 37.649 42.8044 28.5205C42.8044 19.3919 36.0562 13.2892 26.1903 13.2892Z" fill="#A7A7A7"/>
<path d="M265.814 17.6483C263.035 14.879 259.189 13.361 254.974 13.361C250.759 13.361 246.903 14.8892 244.123 17.6688C241.344 20.4484 239.816 24.3049 239.816 28.5204C239.816 32.736 241.344 36.5925 244.123 39.3721C246.903 42.1516 250.748 43.6799 254.974 43.6799C259.199 43.6799 263.045 42.1516 265.814 39.3823C268.583 36.613 270.121 32.7462 270.121 28.5102C270.121 24.2741 268.593 20.4279 265.814 17.6483ZM248.543 21.7612C250.184 20.0484 252.471 19.1047 254.974 19.1047C257.476 19.1047 259.753 20.0484 261.404 21.7612C263.055 23.4741 263.968 25.8742 263.968 28.5102C263.968 31.1462 263.055 33.5462 261.404 35.2591C259.753 36.972 257.476 37.9156 254.974 37.9156C252.471 37.9156 250.184 36.972 248.543 35.2591C246.903 33.5462 245.98 31.1462 245.98 28.5102C245.98 25.8742 246.892 23.4844 248.543 21.7612Z" fill="#A7A7A7"/>
<path d="M98.3187 13.9149C98.5546 13.9764 98.7802 14.0482 99.0058 14.12C98.7802 14.038 98.5546 13.9764 98.3187 13.9149ZM97.1393 13.638C96.9137 13.5969 96.6778 13.5559 96.4419 13.5251C96.688 13.5662 96.9137 13.5969 97.1393 13.638Z" fill="#A7A7A7"/>
<path d="M105.292 38.7156L105.405 38.8387C105.231 39.0336 105.046 39.2285 104.861 39.4131C102.4 41.8747 99.0669 43.3619 95.3954 43.6594C94.9442 43.6902 94.4827 43.7107 94.0211 43.7107C93.5596 43.7107 93.0981 43.6902 92.6571 43.6594C92.1956 43.6184 91.7444 43.5671 91.2931 43.4953C91.0675 43.4542 90.8521 43.4132 90.6265 43.3722C90.4112 43.3312 90.1855 43.2799 89.9702 43.2183L89.724 43.1568C89.4061 43.0645 89.0779 42.9722 88.7702 42.8696L88.5344 42.7876C88.3498 42.7158 88.1549 42.644 87.9703 42.5722C87.8472 42.5209 87.7242 42.4696 87.6011 42.4183C87.478 42.367 87.355 42.3055 87.2422 42.2542C85.7346 41.5465 84.3603 40.5824 83.1912 39.4131C80.4119 36.6335 78.8838 32.7667 78.8838 28.5512C78.8838 24.3357 80.4221 20.4689 83.1912 17.6893C84.8116 16.079 86.7806 14.879 88.9548 14.1712L89.1702 14.0994C89.4266 14.0174 89.683 13.9456 89.9394 13.8841C90.1137 13.843 90.2881 13.802 90.4624 13.761C91.0265 13.6379 91.6008 13.5456 92.1751 13.4738C92.411 13.4533 92.6366 13.4225 92.8725 13.4122C93.2622 13.3815 93.6519 13.3712 94.0519 13.3712H94.3493H94.5134C94.6057 13.3712 94.6878 13.3712 94.7801 13.3815C94.8416 13.3815 94.9134 13.3815 94.9749 13.3917L95.1903 13.402H95.2313C95.4467 13.4225 95.6621 13.4328 95.8774 13.4635C95.9902 13.4738 96.0928 13.484 96.2056 13.5046L96.4825 13.5456C96.7184 13.5764 96.944 13.6174 97.1799 13.6584C97.344 13.6892 97.4978 13.7199 97.6516 13.761C97.8055 13.802 97.9696 13.8328 98.1234 13.8738L98.3593 13.9353C98.5952 13.9969 98.8208 14.0687 99.0464 14.1405C101.251 14.8379 103.251 16.0482 104.892 17.679C105.097 17.8842 105.292 18.0996 105.487 18.315L101.723 21.9356L101.662 21.9869L101.108 22.5407C100.903 22.2741 100.687 22.0177 100.451 21.7715C98.8003 20.0586 96.5235 19.115 94.0211 19.115C91.7034 19.115 89.5702 19.9253 87.96 21.4022L87.9088 21.4535C87.8062 21.5561 87.6934 21.6587 87.5908 21.7612C85.9397 23.4844 85.0269 25.8844 85.0269 28.5204C85.0269 31.1564 85.9397 33.5667 87.5908 35.2796C87.6831 35.3719 87.7754 35.4745 87.878 35.5668C89.4984 37.1053 91.6623 37.9361 94.0211 37.9361C96.5235 37.9361 98.8003 37.0028 100.451 35.2796C100.677 35.0437 100.892 34.7976 101.087 34.5309L104.318 37.731L104.369 37.7925L105.292 38.7156Z" fill="#A7A7A7"/>
<path d="M83.1711 39.3618C84.3506 40.5414 85.7248 41.4952 87.2221 42.2029C85.7146 41.5055 84.3403 40.5414 83.1711 39.3618C80.4226 36.6233 78.9048 32.8385 78.8535 28.7051C78.8535 28.6538 78.8535 28.6128 78.8535 28.5615C78.8535 28.4999 78.8535 28.4281 78.8535 28.3666C78.8843 24.2024 80.4226 20.4074 83.1609 17.6586C84.7813 16.0483 86.7504 14.8482 88.9246 14.1405C86.7606 14.8482 84.7813 16.0483 83.1609 17.6586C80.3816 20.4381 78.8535 24.2947 78.8535 28.5102C78.8535 32.7257 80.3919 36.5823 83.1711 39.3618Z" fill="#A7A7A7"/>
<path d="M88.7603 42.8286C89.0782 42.9312 89.3961 43.0337 89.714 43.1158C89.3961 43.0337 89.0782 42.9312 88.7603 42.8286Z" fill="#A7A7A7"/>
<path d="M89.1396 14.0789C89.396 13.9969 89.6524 13.9251 89.9088 13.8635C89.6524 13.9353 89.396 14.0071 89.1396 14.0789Z" fill="#A7A7A7"/>
<path d="M89.9702 43.1774C90.1856 43.2287 90.4009 43.2799 90.6266 43.3312C90.4009 43.2799 90.1856 43.2287 89.9702 43.1774Z" fill="#A7A7A7"/>
<path d="M91.2833 43.4543C91.0577 43.4132 90.8423 43.3722 90.6167 43.3312C90.8423 43.3722 91.0679 43.4132 91.2833 43.4543Z" fill="#A7A7A7"/>
<path d="M175.882 19.4535H186.169V43.6594H192.353V19.4535H202.639V13.2687H175.882V19.4535Z" fill="#A7A7A7"/>
<path d="M233.621 24.1716C233.621 17.8945 228.565 13.2994 221.868 13.2994H208.823V43.7415H215.007V34.9514H219.715C220.084 34.9514 220.474 34.9514 220.853 34.9207L226.771 43.7415H233.621L227.037 33.7616C231.283 32.0898 233.621 28.5717 233.621 24.1716ZM215.007 19.474H221.602C227.448 19.474 227.448 23.3921 227.448 24.1613C227.448 24.9716 227.448 28.7563 221.602 28.7563H215.007V19.474Z" fill="#A7A7A7"/>
<path d="M55.1627 31.577H66.4952V25.4024H55.1627V19.4843H72.6178V13.2687H48.9888V43.7107H72.6691V37.5464H55.1627V31.577Z" fill="#A7A7A7"/>
<path d="M117.856 31.577H129.188V25.4024H117.856V19.4843H135.311V13.2687H111.682V43.7107H135.362V37.5464H117.856V31.577Z" fill="#A7A7A7"/>
</svg>
