<svg width="24" height="25" viewBox="0 0 24 25" fill="none" xmlns="http://www.w3.org/2000/svg">
<path d="M12 24.7144C18.6274 24.7144 24 19.3418 24 12.7144C24 6.08694 18.6274 0.714355 12 0.714355C5.37258 0.714355 0 6.08694 0 12.7144C0 19.3418 5.37258 24.7144 12 24.7144ZM10.0043 15.1551L15.5685 10.1339C15.8127 9.91712 15.5151 9.81143 15.1909 10.008L8.32364 14.3405L5.35734 13.4147C4.71675 13.2185 4.71215 12.7784 5.50116 12.4619L17.0602 8.00479C17.5881 7.76511 18.0976 8.13159 17.8961 8.93961L15.9276 18.2159C15.7901 18.8751 15.3919 19.0327 14.84 18.7283L11.8414 16.5128L10.4 17.9144C10.2325 18.0772 10.1 18.2144 9.8 18.2144L10.0042 15.1551L10.0043 15.1551Z" fill="white"/>
</svg>
