<svg width="24" height="20" viewBox="0 0 24 20" fill="none" xmlns="http://www.w3.org/2000/svg">
<path d="M23.8418 2.35121C22.9682 2.74001 22.0274 2.99921 21.0434 3.11921C22.0514 2.51441 22.8194 1.55921 23.1842 0.426406C22.2434 0.978406 21.2018 1.38641 20.093 1.60241C19.205 0.656806 17.9378 0.0664062 16.5362 0.0664062C13.8434 0.0664062 11.6642 2.24561 11.6642 4.93841C11.6642 5.32241 11.7074 5.69201 11.789 6.04721C7.74259 5.84561 4.15219 3.90641 1.74739 0.959206C1.32979 1.67921 1.08979 2.51441 1.08979 3.40721C1.08979 5.09681 1.94899 6.58961 3.25459 7.46321C2.45779 7.43921 1.70419 7.21841 1.04659 6.85361C1.04659 6.87281 1.04659 6.89201 1.04659 6.91601C1.04659 9.27761 2.72659 11.2456 4.95379 11.692C4.54579 11.8024 4.11379 11.8648 3.67219 11.8648C3.36019 11.8648 3.05299 11.836 2.75539 11.7784C3.37459 13.7128 5.17459 15.124 7.30579 15.1624C5.64019 16.468 3.53779 17.2456 1.25779 17.2456C0.864191 17.2456 0.475391 17.2216 0.0961914 17.1784C2.25139 18.5608 4.81459 19.3672 7.56499 19.3672C16.5266 19.3672 21.4274 11.9464 21.4274 5.50481C21.4274 5.29361 21.4226 5.08241 21.413 4.87601C22.3634 4.18481 23.189 3.32561 23.8418 2.35121Z" fill="white"/>
</svg>
