<svg width="148" height="51" viewBox="0 0 148 51" fill="none" xmlns="http://www.w3.org/2000/svg">
<g clip-path="url(#clip0_949_1927)">
<path d="M6.03489 0H141.961C145.276 0 147.971 2.69448 147.971 6.00999V44.0732C147.971 47.3887 145.276 50.0832 141.961 50.0832H6.03489C2.71938 50.0832 0.0249023 47.3887 0.0249023 44.0732V6.00999C0.0249023 2.69448 2.71938 0 6.03489 0Z" fill="white"/>
<path d="M32.4108 23.8998C32.3807 20.3138 35.3457 18.5709 35.4759 18.4908C33.7931 16.0467 31.1887 15.7061 30.2772 15.6761C28.0936 15.4457 25.9701 16.9883 24.8582 16.9883C23.7263 16.9883 22.0035 15.7061 20.1604 15.7362C17.7865 15.7763 15.5528 17.1485 14.3408 19.2921C11.8266 23.6493 13.6997 30.06 16.1137 33.5858C17.3257 35.3087 18.728 37.2419 20.5811 37.1718C22.3841 37.1017 23.0653 36.0199 25.2389 36.0199C27.4025 36.0199 28.0335 37.1718 29.9166 37.1317C31.8599 37.1017 33.0719 35.3989 34.2438 33.656C35.6361 31.6827 36.1971 29.7294 36.2171 29.6293C36.167 29.6092 32.4508 28.1869 32.4108 23.8998ZM28.8549 13.3623C29.8265 12.1502 30.4876 10.4975 30.3073 8.8147C28.905 8.8748 27.142 9.78631 26.1303 10.9783C25.2389 12.03 24.4375 13.7429 24.6379 15.3556C26.2205 15.4758 27.8432 14.5542 28.8549 13.3623ZM58.5742 36.9214H56.05L54.6678 32.5742H49.8598L48.5476 36.9214H46.0935L50.8514 22.1268H53.7963L58.5742 36.9214ZM54.2571 30.7511L53.005 26.8947C52.8748 26.4941 52.6244 25.5725 52.2638 24.1101H52.2137C52.0634 24.7412 51.833 25.6727 51.5125 26.8947L50.2805 30.7511H54.2571ZM70.8046 31.4623C70.8046 33.2753 70.3137 34.7077 69.3221 35.7595C68.4406 36.701 67.3388 37.1618 66.0366 37.1618C64.6243 37.1618 63.6126 36.6609 62.9916 35.6493V41.2486H60.6176V29.7595C60.6176 28.6176 60.5876 27.4557 60.5275 26.2537H62.611L62.7412 27.9465H62.7812C63.5725 26.6744 64.7745 26.0333 66.3772 26.0333C67.6393 26.0333 68.681 26.5341 69.5224 27.5258C70.3839 28.5274 70.8046 29.8296 70.8046 31.4623ZM68.3906 31.5424C68.3906 30.5007 68.1602 29.6493 67.6894 28.9782C67.1785 28.277 66.4874 27.9264 65.626 27.9264C65.045 27.9264 64.5141 28.1268 64.0333 28.5074C63.5625 28.8981 63.242 29.3989 63.1018 30.0299C63.0317 30.3204 62.9916 30.5608 62.9916 30.7511V32.5341C62.9916 33.3054 63.232 33.9665 63.7028 34.4974C64.1735 35.0282 64.7946 35.2987 65.5558 35.2987C66.4473 35.2987 67.1385 34.9481 67.6393 34.267C68.1401 33.5758 68.3906 32.6743 68.3906 31.5424ZM83.0649 31.4623C83.0649 33.2753 82.5741 34.7077 81.5825 35.7595C80.701 36.701 79.5992 37.1618 78.297 37.1618C76.8847 37.1618 75.873 36.6609 75.252 35.6493V41.2486H72.878V29.7595C72.878 28.6176 72.848 27.4557 72.7879 26.2537H74.8713L75.0015 27.9465H75.0416C75.8329 26.6744 77.0349 26.0333 78.6376 26.0333C79.8997 26.0333 80.9414 26.5341 81.7828 27.5258C82.6442 28.5274 83.0649 29.8296 83.0649 31.4623ZM80.6509 31.5424C80.6509 30.5007 80.4205 29.6493 79.9498 28.9782C79.4389 28.277 78.7478 27.9264 77.8863 27.9264C77.3054 27.9264 76.7745 28.1268 76.2937 28.5074C75.8229 28.8981 75.5124 29.3989 75.3621 30.0299C75.292 30.3204 75.252 30.5608 75.252 30.7511V32.5341C75.252 33.3054 75.4923 33.9665 75.9631 34.4974C76.4339 35.0282 77.0549 35.2987 77.8162 35.2987C78.7077 35.2987 79.4089 34.9481 79.8997 34.267C80.4105 33.5758 80.6509 32.6743 80.6509 31.5424ZM96.7877 32.7745C96.7877 34.0366 96.347 35.0583 95.4756 35.8496C94.514 36.711 93.1717 37.1417 91.4489 37.1417C89.8562 37.1417 88.5841 36.8312 87.6225 36.2202L88.1734 34.2469C89.2151 34.858 90.357 35.1685 91.5991 35.1685C92.4906 35.1685 93.1918 34.9681 93.6826 34.5675C94.1834 34.1668 94.4338 33.6259 94.4338 32.9548C94.4338 32.3538 94.2235 31.853 93.8228 31.4423C93.4121 31.0316 92.731 30.651 91.7794 30.3004C89.1651 29.3288 87.8729 27.9164 87.8729 26.0633C87.8729 24.8513 88.3337 23.8597 89.2452 23.0784C90.1567 22.3071 91.3687 21.9165 92.8812 21.9165C94.2235 21.9165 95.3453 22.1468 96.2368 22.6176L95.6358 24.5408C94.7944 24.0901 93.8529 23.8597 92.7911 23.8597C91.9597 23.8597 91.2986 24.07 90.8278 24.4707C90.4372 24.8413 90.2368 25.2821 90.2368 25.8129C90.2368 26.3939 90.4672 26.8847 90.918 27.2553C91.3086 27.6059 92.0298 27.9865 93.0716 28.3972C94.3437 28.9081 95.2752 29.5091 95.8762 30.2002C96.4872 30.8914 96.7877 31.7528 96.7877 32.7745ZM104.641 28.0366H102.026V33.2152C102.026 34.5274 102.487 35.1885 103.409 35.1885C103.829 35.1885 104.18 35.1484 104.46 35.0783L104.531 36.8813C104.06 37.0516 103.449 37.1417 102.688 37.1417C101.746 37.1417 101.025 36.8513 100.494 36.2803C99.963 35.7094 99.7026 34.7478 99.7026 33.4055V28.0266H98.15V26.2537H99.7026V24.3004L102.026 23.5993V26.2537H104.641V28.0366ZM116.4 31.5024C116.4 33.1451 115.93 34.4873 114.998 35.5391C114.016 36.6209 112.714 37.1618 111.091 37.1618C109.529 37.1618 108.277 36.6409 107.345 35.6092C106.414 34.5775 105.953 33.2653 105.953 31.6827C105.953 30.0299 106.434 28.6777 107.385 27.6259C108.347 26.5742 109.639 26.0433 111.262 26.0433C112.824 26.0433 114.086 26.5642 115.038 27.6059C115.95 28.6076 116.4 29.9097 116.4 31.5024ZM113.946 31.5525C113.946 30.5708 113.736 29.7395 113.315 29.0383C112.814 28.1869 112.103 27.7662 111.182 27.7662C110.23 27.7662 109.499 28.1869 109.008 29.0383C108.577 29.7395 108.377 30.5909 108.377 31.6025C108.377 32.5842 108.587 33.4256 109.008 34.1167C109.519 34.9681 110.24 35.3888 111.162 35.3888C112.063 35.3888 112.774 34.9581 113.295 34.0967C113.726 33.3755 113.946 32.5341 113.946 31.5525ZM124.113 28.3371C123.883 28.2971 123.632 28.277 123.362 28.277C122.531 28.277 121.879 28.5875 121.429 29.2186C121.038 29.7695 120.838 30.4807 120.838 31.3221V36.9214H118.464V29.6092C118.464 28.3772 118.444 27.2553 118.394 26.2537H120.457L120.547 28.2971H120.617C120.868 27.5959 121.258 27.0249 121.799 26.6042C122.33 26.2236 122.901 26.0333 123.512 26.0333C123.733 26.0333 123.933 26.0533 124.103 26.0734L124.113 28.3371ZM134.711 31.0817C134.711 31.5024 134.681 31.863 134.621 32.1535H127.509C127.539 33.2052 127.879 34.0166 128.54 34.5675C129.141 35.0583 129.913 35.3087 130.864 35.3087C131.916 35.3087 132.878 35.1384 133.739 34.8079L134.11 36.4506C133.098 36.8913 131.906 37.1117 130.534 37.1117C128.881 37.1117 127.579 36.6209 126.637 35.6493C125.696 34.6777 125.225 33.3655 125.225 31.7328C125.225 30.1301 125.666 28.7879 126.547 27.7161C127.469 26.5742 128.711 26.0032 130.273 26.0032C131.806 26.0032 132.978 26.5742 133.759 27.7161C134.39 28.6376 134.711 29.7495 134.711 31.0817ZM132.447 30.4707C132.467 29.7695 132.307 29.1585 131.986 28.6476C131.576 27.9865 130.944 27.656 130.103 27.656C129.332 27.656 128.701 27.9765 128.22 28.6176C127.829 29.1284 127.589 29.7495 127.519 30.4607L132.447 30.4707Z" fill="black"/>
<path d="M53.1153 16.838H51.8732L51.1921 14.7045H48.8282L48.1771 16.838H46.9751L49.309 9.56594H50.7514L53.1153 16.838ZM50.9818 13.803L50.3707 11.8998C50.3106 11.7095 50.1904 11.2487 50.0001 10.5275H49.9801C49.9 10.838 49.7998 11.2888 49.6295 11.8998L49.0285 13.803H50.9818ZM58.965 11.5893L56.9817 16.838H55.8498L53.9266 11.5893H55.1787L56.0702 14.3639C56.2205 14.8247 56.3507 15.2654 56.4508 15.6861H56.4809C56.571 15.3055 56.7013 14.8647 56.8615 14.3639L57.743 11.5893H58.965ZM63.192 16.838L63.1019 16.237H63.0718C62.7112 16.7178 62.2004 16.9582 61.5393 16.9582C60.5977 16.9582 59.9366 16.2971 59.9366 15.4157C59.9366 14.1235 61.0585 13.4524 63.0017 13.4524V13.3522C63.0017 12.6611 62.6311 12.3205 61.9099 12.3205C61.389 12.3205 60.9383 12.4507 60.5376 12.7112L60.2972 11.9499C60.778 11.6494 61.389 11.4991 62.1002 11.4991C63.4725 11.4991 64.1637 12.2203 64.1637 13.6728V15.606C64.1637 16.1369 64.1837 16.5475 64.2438 16.858L63.192 16.838ZM63.0318 14.2237C61.7396 14.2237 61.0885 14.5342 61.0885 15.2854C61.0885 15.8364 61.4191 16.1068 61.8899 16.1068C62.4809 16.1068 63.0318 15.6561 63.0318 15.035V14.2237ZM66.758 10.7279C66.3673 10.7279 66.0668 10.4274 66.0668 10.0267C66.0668 9.62604 66.3773 9.33555 66.778 9.33555C67.1787 9.33555 67.4992 9.62604 67.4892 10.0267C67.4892 10.4474 67.1887 10.7279 66.758 10.7279ZM66.197 11.5893H67.359V16.828H66.197V11.5893ZM69.4324 9.1853H70.5943V16.828H69.4324V9.1853ZM75.5426 16.838L75.4524 16.237H75.4224C75.0618 16.7178 74.5509 16.9582 73.8898 16.9582C72.9483 16.9582 72.2872 16.2971 72.2872 15.4157C72.2872 14.1235 73.409 13.4524 75.3522 13.4524V13.3522C75.3522 12.6611 74.9816 12.3205 74.2604 12.3205C73.7396 12.3205 73.2888 12.4507 72.8882 12.7112L72.6478 11.9399C73.1285 11.6394 73.7396 11.4891 74.4507 11.4891C75.823 11.4891 76.5142 12.2103 76.5142 13.6627V15.596C76.5142 16.1268 76.5342 16.5375 76.5843 16.848H75.5426V16.838ZM75.3823 14.2237C74.0901 14.2237 73.4391 14.5342 73.4391 15.2854C73.4391 15.8364 73.7696 16.1068 74.2404 16.1068C74.8314 16.1068 75.3823 15.6561 75.3823 15.035V14.2237ZM81.242 16.9582C80.5008 16.9582 79.9499 16.6477 79.5893 16.0267H79.5692L79.4991 16.838H78.5075C78.5375 16.4173 78.5476 15.9465 78.5476 15.4257V9.1853H79.7195V12.3606H79.7395C80.0901 11.7796 80.641 11.4891 81.4123 11.4891C82.6744 11.4891 83.5559 12.5709 83.5559 14.1435C83.5559 15.7662 82.5742 16.9582 81.242 16.9582ZM81.0016 12.4006C80.3305 12.4006 79.7195 12.9816 79.7195 13.793V14.7145C79.7195 15.4357 80.2704 16.0267 80.9816 16.0267C81.853 16.0267 82.3739 15.3155 82.3739 14.1836C82.3739 13.1218 81.833 12.4006 81.0016 12.4006ZM85.2787 9.1853H86.4407V16.828H85.2787V9.1853ZM92.7812 14.4941H89.2854C89.3054 15.4858 89.9665 16.0467 90.9381 16.0467C91.459 16.0467 91.9298 15.9566 92.3505 15.7963L92.5308 16.6076C92.04 16.828 91.459 16.9282 90.7779 16.9282C89.1351 16.9282 88.1635 15.8965 88.1635 14.2838C88.1635 12.6811 89.1552 11.4691 90.6477 11.4691C91.9799 11.4691 92.8313 12.4607 92.8313 13.9632C92.8313 14.1736 92.8213 14.3539 92.7812 14.4941ZM91.7194 13.6627C91.7194 12.8514 91.3088 12.2804 90.5675 12.2804C89.8964 12.2804 89.3755 12.8614 89.2954 13.6627H91.7194ZM99.8429 16.9582C98.3104 16.9582 97.3187 15.8163 97.3187 14.2637C97.3187 12.641 98.3304 11.4891 99.9331 11.4891C101.446 11.4891 102.457 12.5809 102.457 14.1736C102.457 15.8063 101.416 16.9582 99.8429 16.9582ZM99.893 12.3405C99.0516 12.3405 98.5107 13.1319 98.5107 14.2237C98.5107 15.3055 99.0616 16.0868 99.883 16.0868C100.704 16.0868 101.255 15.2454 101.255 14.1936C101.245 13.1319 100.714 12.3405 99.893 12.3405ZM108.718 16.838H107.556V13.823C107.556 12.8915 107.195 12.4307 106.494 12.4307C105.803 12.4307 105.332 13.0217 105.332 13.7128V16.828H104.17V13.0918C104.17 12.631 104.16 12.1302 104.13 11.5893H105.152L105.202 12.4006H105.232C105.542 11.8397 106.183 11.4791 106.895 11.4791C107.996 11.4791 108.718 12.3205 108.718 13.6928V16.838ZM116.34 12.4708H115.058V15.015C115.058 15.6661 115.289 15.9866 115.739 15.9866C115.94 15.9866 116.12 15.9666 116.26 15.9365L116.29 16.818C116.06 16.9081 115.759 16.9482 115.389 16.9482C114.467 16.9482 113.926 16.4373 113.926 15.1152V12.4708H113.165V11.5993H113.926V10.6377L115.068 10.2871V11.5893H116.35V12.4708M122.511 16.838H121.349V13.843C121.349 12.9015 120.988 12.4307 120.287 12.4307C119.686 12.4307 119.125 12.8414 119.125 13.6728V16.828H117.963V9.1853H119.125V12.3305H119.145C119.516 11.7596 120.036 11.4791 120.718 11.4791C121.829 11.4791 122.511 12.3405 122.511 13.7128V16.838ZM128.46 14.4941H124.965C124.985 15.4858 125.646 16.0467 126.617 16.0467C127.138 16.0467 127.609 15.9566 128.03 15.7963L128.21 16.6076C127.719 16.828 127.138 16.9282 126.457 16.9282C124.814 16.9282 123.843 15.8965 123.843 14.2838C123.843 12.6811 124.834 11.4691 126.327 11.4691C127.659 11.4691 128.511 12.4607 128.511 13.9632C128.511 14.1736 128.501 14.3539 128.46 14.4941ZM127.399 13.6627C127.399 12.8514 126.988 12.2804 126.247 12.2804C125.576 12.2804 125.045 12.8614 124.975 13.6627H127.399Z" fill="black"/>
</g>
<defs>
<clipPath id="clip0_949_1927">
<rect width="148" height="50.0832" fill="white"/>
</clipPath>
</defs>
</svg>
