<svg width="150" height="36" viewBox="0 0 150 36" fill="none" xmlns="http://www.w3.org/2000/svg">
<path fill-rule="evenodd" clip-rule="evenodd" d="M0.621205 1.00829C0.226731 1.43226 0 2.0848 0 2.93274V33.0935C0 33.9414 0.226731 34.5939 0.635952 35.0032L0.742865 35.0935L17.6426 18.1938V17.814L0.728119 0.917969L0.621205 1.00829Z" fill="url(#paint0_linear_949_1987)"/>
<path fill-rule="evenodd" clip-rule="evenodd" d="M23.2658 23.8491L17.6289 18.2104V17.8159L23.2677 12.1771L23.3893 12.2527L30.0585 16.0426C31.9682 17.1191 31.9682 18.8924 30.0585 19.9837L23.3893 23.7736C23.3875 23.7736 23.2658 23.8491 23.2658 23.8491Z" fill="url(#paint1_linear_949_1987)"/>
<path fill-rule="evenodd" clip-rule="evenodd" d="M23.3858 23.774L17.6273 18.0135L0.620605 35.0202C1.24181 35.6875 2.28698 35.7631 3.45566 35.1105L23.3858 23.774Z" fill="url(#paint2_linear_949_1987)"/>
<path fill-rule="evenodd" clip-rule="evenodd" d="M23.3858 12.2541L3.45566 0.932321C2.28883 0.265033 1.24181 0.355357 0.620605 1.02264L17.6254 18.0127L23.3858 12.2541Z" fill="url(#paint3_linear_949_1987)"/>
<path opacity="0.2" fill-rule="evenodd" clip-rule="evenodd" d="M23.2655 23.6523L3.47177 34.8986C2.36577 35.5345 1.37958 35.4903 0.743632 34.9133L0.636719 35.0202L0.743632 35.1105C1.37958 35.6857 2.36577 35.7317 3.47177 35.0958L23.402 23.774L23.2655 23.6523Z" fill="black"/>
<path opacity="0.12" fill-rule="evenodd" clip-rule="evenodd" d="M30.0551 19.7868L23.2495 23.6523L23.3712 23.774L30.0404 19.9841C30.9952 19.4384 31.4653 18.7269 31.4653 18.0135C31.4044 18.6661 30.9196 19.2873 30.0551 19.7868Z" fill="black"/>
<path opacity="0.25" fill-rule="evenodd" clip-rule="evenodd" d="M3.45626 1.1301L30.0556 16.2418C30.9202 16.7266 31.405 17.3625 31.4805 18.0151C31.4805 17.3036 31.0105 16.5902 30.0556 16.0446L3.45626 0.932862C1.54656 -0.158394 0 0.750372 0 2.93288V3.13012C0 0.947609 1.54656 0.0535896 3.45626 1.1301Z" fill="white"/>
<path fill-rule="evenodd" clip-rule="evenodd" d="M37.9729 17.0565C37.9729 12.2251 42.0338 8.29138 46.8652 8.29138C49.5362 8.29138 51.4367 9.34024 52.8708 10.7062L51.1823 12.3947C50.1574 11.4324 48.7675 10.6859 46.8633 10.6859C43.3352 10.6859 40.5776 13.5265 40.5776 17.0546C40.5776 20.5828 43.3352 23.427 46.8615 23.427C49.1491 23.427 50.4505 22.5091 51.2855 21.6722C51.9694 20.9883 52.4173 20.0058 52.5906 18.6583H46.8652V16.2694H54.9243C55.0091 16.697 55.0533 17.2095 55.0533 17.7643C55.0533 19.5579 54.5611 21.7828 52.9777 23.3662C51.4367 24.9699 49.4717 25.8252 46.8633 25.8252C42.0301 25.8252 37.9692 21.8952 37.9692 17.0601L37.9729 17.0565ZM61.5677 14.5348C58.4469 14.5348 55.8994 16.909 55.8994 20.1772C55.8994 23.4289 58.445 25.8197 61.5677 25.8197C64.6903 25.8197 67.2322 23.4252 67.2322 20.1754C67.2322 16.9072 64.6884 14.5329 61.5677 14.5348ZM61.5677 23.6003C59.8589 23.6003 58.3824 22.1902 58.3824 20.1791C58.3824 18.1477 59.857 16.7578 61.5677 16.7578C63.2764 16.7578 64.7511 18.1459 64.7511 20.1791C64.7511 22.1883 63.2783 23.6003 61.5677 23.6003ZM73.9272 14.5348C70.8065 14.5348 68.2627 16.909 68.2627 20.1772C68.2627 23.4289 70.8065 25.8197 73.9272 25.8197C77.048 25.8197 79.5918 23.4252 79.5918 20.1754C79.5918 16.9072 77.0499 14.5329 73.9272 14.5348ZM73.9272 23.6003C72.2185 23.6003 70.7419 22.1902 70.7419 20.1791C70.7419 18.1477 72.2166 16.7578 73.9272 16.7578C75.636 16.7578 77.1125 18.1459 77.1125 20.1791C77.1125 22.1883 75.636 23.6003 73.9272 23.6003ZM89.0961 14.8776V15.7956H89.0113C88.4564 15.1302 87.3873 14.5329 86.0417 14.5329C83.2195 14.5329 80.6296 17.0141 80.6296 20.2012C80.6296 23.3625 83.2177 25.8234 86.0417 25.8234C87.3873 25.8234 88.4564 25.2261 89.0113 24.5423H89.0961V25.3533C89.0961 27.5119 87.9421 28.6677 86.0822 28.6677C84.5633 28.6677 83.6232 27.5764 83.2379 26.6603L81.0775 27.558C81.6969 29.0529 83.3448 30.8926 86.0804 30.8926C88.9855 30.8926 91.4445 29.1801 91.4445 25.0123V14.8758L89.0961 14.8776ZM86.2536 23.6003C84.5449 23.6003 83.1089 22.1662 83.1089 20.2012C83.1089 18.2141 84.543 16.7597 86.2536 16.7597C87.9421 16.7597 89.2675 18.2122 89.2675 20.2012C89.2693 22.1662 87.944 23.6003 86.2536 23.6003ZM93.1569 8.89047H95.6381V25.4805H93.1569V8.89047ZM102.438 23.6003C101.177 23.6003 100.278 23.0215 99.7045 21.8915L107.251 18.7671L106.991 18.1256C106.523 16.8666 105.089 14.5348 102.16 14.5348C99.2529 14.5348 96.8362 16.8224 96.8362 20.1791C96.8362 23.3404 99.2307 25.8215 102.438 25.8215C105.026 25.8215 106.523 24.2418 107.142 23.3201L105.218 22.039C104.575 22.981 103.697 23.6022 102.438 23.6003ZM102.245 16.7154C103.227 16.7154 104.06 17.2076 104.339 17.9118L99.2916 20.0076C99.2289 17.827 100.982 16.7154 102.245 16.7154ZM118.138 8.89047H112.206V25.4805H114.682V19.1966H118.14C120.884 19.1966 123.583 17.2095 123.583 14.0426C123.583 10.8813 120.886 8.89231 118.143 8.89231L118.138 8.89047ZM118.202 16.8869H114.682V11.1983H118.202C120.053 11.1983 121.107 12.7338 121.107 14.0426C121.107 15.3293 120.053 16.8869 118.202 16.8869ZM127.423 25.4805V8.89047H124.947V25.4805H127.423ZM138.544 25.451V19.0915C138.544 16.1459 136.343 14.5034 133.502 14.5034C131.712 14.5034 129.856 15.2942 129.087 17.0436L131.285 17.9597C131.755 17.0436 132.628 16.7431 133.548 16.7431C134.827 16.7431 136.129 17.5118 136.149 18.8795V19.051C135.701 18.7947 134.743 18.4095 133.567 18.4095C131.198 18.4095 128.787 19.7109 128.787 22.1441C128.787 24.3653 130.73 25.7939 132.907 25.7939C134.573 25.7939 135.489 25.0473 136.064 24.1736H136.149V25.4547H138.542L138.544 25.451ZM133.207 23.5966C132.396 23.5966 131.264 23.1911 131.264 22.1902C131.264 20.909 132.674 20.415 133.891 20.415C134.98 20.415 135.491 20.6491 136.155 20.9699C135.965 22.4593 134.706 23.5782 133.207 23.5966ZM147.25 14.8666L144.411 22.0574H144.326L141.381 14.8666H138.713L143.13 24.9201L140.61 30.511H143.193L150 14.8666H147.25Z" fill="white"/>
<defs>
<linearGradient id="paint0_linear_949_1987" x1="16.1251" y1="2.60854" x2="-10.9454" y2="9.82148" gradientUnits="userSpaceOnUse">
<stop stop-color="#00A0FF"/>
<stop offset="0.007" stop-color="#00A1FF"/>
<stop offset="0.26" stop-color="#00BEFF"/>
<stop offset="0.512" stop-color="#00D2FF"/>
<stop offset="0.76" stop-color="#00DFFF"/>
<stop offset="1" stop-color="#00E3FF"/>
</linearGradient>
<linearGradient id="paint1_linear_949_1987" x1="32.5436" y1="18.014" x2="-0.463087" y2="18.014" gradientUnits="userSpaceOnUse">
<stop stop-color="#FFE000"/>
<stop offset="0.409" stop-color="#FFBD00"/>
<stop offset="0.775" stop-color="#FFA500"/>
<stop offset="1" stop-color="#FF9C00"/>
</linearGradient>
<linearGradient id="paint2_linear_949_1987" x1="20.2545" y1="21.1473" x2="-1.47779" y2="57.7241" gradientUnits="userSpaceOnUse">
<stop stop-color="#FF3A44"/>
<stop offset="1" stop-color="#C31162"/>
</linearGradient>
<linearGradient id="paint3_linear_949_1987" x1="-3.66039" y1="-9.02503" x2="6.03503" y2="7.31075" gradientUnits="userSpaceOnUse">
<stop stop-color="#32A071"/>
<stop offset="0.069" stop-color="#2DA771"/>
<stop offset="0.476" stop-color="#15CF74"/>
<stop offset="0.801" stop-color="#06E775"/>
<stop offset="1" stop-color="#00F076"/>
</linearGradient>
</defs>
</svg>
